<?xml version="1.0" standalone="no"?>
<!DOCTYPE svg PUBLIC "-//W3C//DTD SVG 20010904//EN"
 "http://www.w3.org/TR/2001/REC-SVG-20010904/DTD/svg10.dtd">
<svg version="1.0" xmlns="http://www.w3.org/2000/svg"
 width="200.000000pt" height="200.000000pt" viewBox="0 0 200.000000 200.000000"
 preserveAspectRatio="xMidYMid meet">
<metadata>
Created by potrace 1.14, written by Peter Selinger 2001-2017
</metadata>
<g transform="translate(0.000000,200.000000) scale(0.100000,-0.100000)"
fill="#000000" stroke="none">
<path d="M955 1987 c-11 -6 -104 -75 -207 -154 -102 -79 -188 -143 -191 -143
-2 0 -4 28 -3 63 l1 62 -130 3 -130 3 -1 -143 c0 -79 -4 -155 -7 -170 -5 -19
-47 -58 -141 -133 -106 -83 -136 -112 -141 -136 -19 -88 80 -148 168 -103 33
17 150 106 557 420 256 197 268 204 291 195 8 -3 105 -75 215 -160 403 -313
540 -418 573 -441 45 -31 109 -33 148 -4 38 28 52 84 30 117 -14 22 -143 123
-732 575 -99 76 -189 142 -200 147 -32 13 -79 14 -100 2z"/>
<path d="M715 1193 c-8 -8 -19 -22 -23 -31 -9 -18 -9 -188 -1 -197 5 -5 111
-8 205 -6 l40 1 -1 123 -1 122 -102 2 c-79 1 -106 -2 -117 -14z"/>
<path d="M1059 1178 c-1 -64 2 -213 5 -215 3 -3 156 -5 219 -4 l29 1 -4 106
c-4 139 -9 144 -149 144 l-99 0 -1 -32z"/>
<path d="M689 852 c-1 -4 -2 -50 -3 -102 -1 -89 0 -97 24 -120 24 -24 30 -25
125 -22 l101 3 -1 122 0 122 -123 2 c-67 1 -122 -2 -123 -5z"/>
<path d="M1058 743 c-2 -62 -1 -118 0 -123 2 -6 25 -10 50 -10 44 0 48 3 69
39 13 22 47 66 76 98 35 38 53 66 52 83 l0 25 -122 1 -122 1 -3 -114z"/>
<path d="M1919 856 c-2 -2 -22 -6 -44 -9 -426 -61 -559 -134 -673 -368 -53
-110 -79 -206 -89 -329 -6 -73 -5 -75 13 -59 241 199 324 272 397 347 85 89
112 111 61 48 -66 -80 -268 -275 -409 -396 l-49 -43 78 8 c220 20 418 112 547
254 71 78 138 208 168 326 31 121 31 250 0 221z"/>
<path d="M470 453 c-52 -7 -150 -36 -150 -44 0 -10 63 -119 110 -189 101 -149
205 -201 392 -195 51 2 102 5 114 8 55 13 110 31 118 38 15 13 -83 167 -149
234 -60 62 -171 127 -240 141 -38 7 -162 12 -195 7z"/>
</g>
</svg>
