<?xml version="1.0" standalone="no"?>
<!DOCTYPE svg PUBLIC "-//W3C//DTD SVG 20010904//EN"
 "http://www.w3.org/TR/2001/REC-SVG-20010904/DTD/svg10.dtd">
<svg version="1.0" xmlns="http://www.w3.org/2000/svg"
 width="260.000000pt" height="260.000000pt" viewBox="0 0 260.000000 260.000000"
 preserveAspectRatio="xMidYMid meet">
<metadata>
Created by potrace 1.14, written by Peter Selinger 2001-2017
</metadata>
<g transform="translate(0.000000,260.000000) scale(0.100000,-0.100000)"
fill="#000000" stroke="none">
<path d="M1245 2586 c-18 -10 -268 -197 -319 -238 -19 -16 -97 -78 -121 -96
-43 -33 -77 -53 -82 -48 -9 9 -9 116 1 116 5 0 4 6 -2 13 -6 6 -10 17 -9 22 1
6 -59 10 -164 10 l-166 0 1 -140 c2 -213 -6 -281 -34 -308 -27 -24 -121 -101
-164 -132 -15 -11 -37 -28 -49 -39 -12 -10 -41 -32 -64 -48 -43 -31 -73 -79
-73 -118 0 -60 61 -117 131 -123 58 -5 88 8 196 90 50 37 101 75 113 83 12 8
30 22 40 30 41 34 81 64 190 147 64 49 129 98 145 111 17 12 43 32 60 45 43
33 145 113 184 144 19 16 39 30 45 32 6 2 16 9 21 16 12 14 116 94 152 117 21
14 30 15 42 5 8 -7 17 -11 20 -10 3 1 17 -7 31 -18 14 -11 99 -77 190 -147 91
-70 224 -172 295 -226 72 -54 135 -105 141 -112 6 -8 14 -14 17 -14 5 0 168
-125 267 -203 57 -46 110 -77 138 -82 19 -3 37 -6 40 -7 33 -9 140 62 126 83
-3 5 0 9 5 9 14 0 14 67 1 75 -6 4 -8 10 -6 14 7 11 -32 46 -129 117 -44 32
-89 67 -100 77 -11 10 -67 54 -125 98 -58 45 -118 91 -135 104 -177 138 -602
462 -660 503 -61 44 -83 54 -122 56 -27 2 -57 -2 -68 -8z"/>
<path d="M996 1570 c-46 -4 -63 -11 -80 -31 -20 -23 -22 -38 -24 -157 -2 -120
-1 -132 15 -133 78 -4 296 -3 302 1 4 3 7 76 7 163 0 136 -2 157 -15 158 -118
3 -155 3 -205 -1z"/>
<path d="M1392 1569 c-15 -5 -17 -25 -17 -162 0 -87 2 -157 5 -158 23 -4 289
-3 304 1 19 7 18 -2 17 200 -1 51 -5 64 -28 90 -28 30 -29 30 -146 33 -65 1
-126 -1 -135 -4z"/>
<path d="M893 1104 c-2 -6 -3 -56 -1 -112 2 -61 -1 -104 -7 -106 -5 -3 -5 -5
2 -5 7 -1 10 -7 7 -15 -3 -7 7 -27 21 -44 l26 -30 137 1 137 2 1 140 c1 77 0
149 -3 160 -4 19 -12 20 -160 20 -102 0 -157 -4 -160 -11z"/>
<path d="M1379 1090 c-4 -86 -4 -277 -1 -287 3 -9 25 -13 62 -13 58 0 58 0 83
43 34 56 52 79 118 151 32 36 55 69 54 81 -4 53 5 50 -160 50 l-155 1 -1 -26z"/>
<path d="M2509 1116 c-2 -2 -20 -7 -39 -10 -19 -3 -46 -8 -60 -10 -60 -12
-167 -29 -190 -30 -14 -2 -32 -5 -40 -9 -8 -3 -42 -11 -75 -18 -75 -14 -208
-58 -216 -71 -3 -5 -9 -9 -13 -8 -4 1 -33 -14 -64 -33 -90 -56 -176 -159 -244
-292 -27 -53 -68 -154 -72 -176 -1 -8 -5 -20 -10 -27 -4 -7 -5 -16 -2 -19 3
-3 1 -12 -5 -20 -6 -7 -9 -13 -5 -13 3 0 2 -10 -3 -23 -11 -27 -22 -104 -26
-174 -2 -28 -6 -57 -10 -62 -3 -6 1 -11 9 -11 9 0 16 4 16 8 0 4 14 16 31 26
18 10 39 26 48 35 10 10 26 24 38 32 47 33 227 189 231 201 2 4 7 8 12 8 9 0
204 193 246 243 13 16 24 23 24 17 0 -35 -324 -358 -577 -576 -15 -13 -32 -24
-38 -24 -5 0 -4 -4 3 -9 8 -5 26 -7 40 -6 64 7 122 16 192 30 111 22 121 25
142 36 11 6 27 12 36 14 9 2 40 13 67 26 28 12 53 23 56 23 3 1 41 24 85 53
77 51 204 164 204 182 0 5 4 11 8 13 21 8 133 195 137 228 0 3 3 10 6 15 6 9
30 77 35 100 12 47 16 63 20 85 2 14 7 32 10 40 10 29 16 210 7 210 -5 0 -12
-2 -14 -4z"/>
<path d="M647 594 c-1 -2 -23 -5 -47 -7 -67 -7 -153 -31 -189 -54 -2 -1 6 -15
18 -31 12 -17 21 -32 21 -35 0 -10 74 -132 82 -135 5 -2 8 -8 8 -13 0 -31 159
-209 187 -209 7 0 13 -4 13 -9 0 -5 15 -14 33 -21 17 -7 41 -16 52 -20 34 -13
126 -30 135 -25 5 3 11 2 14 -3 11 -18 296 9 296 29 0 4 8 8 18 8 32 0 74 9
83 18 11 12 -31 99 -91 184 -147 214 -325 317 -557 324 -40 1 -74 1 -76 -1z"/>
</g>
</svg>
