<svg width="24" height="22" viewBox="0 0 24 22" fill="none" xmlns="http://www.w3.org/2000/svg">
<path d="M10.8 4.8C10.8 7.45097 8.65097 9.6 6 9.6C3.34903 9.6 1.2 7.45097 1.2 4.8C1.2 2.14903 3.34903 0 6 0C8.65097 0 10.8 2.14903 10.8 4.8ZM8.4 4.8C8.4 3.47452 7.32548 2.4 6 2.4C4.67452 2.4 3.6 3.47452 3.6 4.8C3.6 6.12548 4.67452 7.2 6 7.2C7.32548 7.2 8.4 6.12548 8.4 4.8Z" fill="#1B490A"/>
<path d="M22.8 10.2C22.8 12.5196 20.9196 14.4 18.6 14.4C16.2804 14.4 14.4 12.5196 14.4 10.2C14.4 7.8804 16.2804 6 18.6 6C20.9196 6 22.8 7.8804 22.8 10.2ZM20.4 10.2C20.4 9.20589 19.5941 8.4 18.6 8.4C17.6059 8.4 16.8 9.20589 16.8 10.2C16.8 11.1941 17.6059 12 18.6 12C19.5941 12 20.4 11.1941 20.4 10.2Z" fill="#1B490A"/>
<path d="M9.6 21.6V16.8C9.6 14.8118 7.98823 13.2 6 13.2C4.01177 13.2 2.4 14.8118 2.4 16.8V21.6H0V16.8C0 13.4863 2.68629 10.8 6 10.8C9.31371 10.8 12 13.4863 12 16.8V21.6H9.6Z" fill="#1B490A"/>
<path d="M21.6 21V21.6H24V21C24 18.0177 21.5823 15.6 18.6 15.6C15.6177 15.6 13.2 18.0177 13.2 21V21.6H15.6V21C15.6 19.3431 16.9431 18 18.6 18C20.2569 18 21.6 19.3431 21.6 21Z" fill="#1B490A"/>
</svg>
