<svg width="20" height="24" viewBox="0 0 20 24" fill="none" xmlns="http://www.w3.org/2000/svg">
<path d="M16.8 24H2.4C1.07452 24 0 22.9255 0 21.6V2.4C0 1.07452 1.07452 0 2.4 0H10.8C10.8131 0.000566783 10.826 0.00299107 10.8384 0.0072C10.8501 0.0108207 10.8622 0.0132332 10.8744 0.0144C10.9802 0.0211838 11.0847 0.0417578 11.1852 0.0756L11.2188 0.0864C11.246 0.0956184 11.2725 0.106849 11.298 0.12C11.4287 0.178108 11.5479 0.259421 11.6496 0.36L18.8496 7.56C18.9502 7.66174 19.0315 7.78087 19.0896 7.9116C19.1016 7.938 19.11 7.9656 19.1196 7.9932L19.1304 8.0244C19.1639 8.12447 19.1837 8.22862 19.1892 8.334C19.1911 8.34502 19.1939 8.35586 19.1976 8.3664C19.1997 8.37747 19.2005 8.38875 19.2002 8.4V21.6C19.2002 22.9255 18.1255 24 16.8 24ZM2.4 2.4V21.6H16.8V9.6H10.8C10.1373 9.6 9.6 9.06274 9.6 8.4V2.4H2.4ZM12 4.0968V7.2H15.1032L12 4.0968Z" fill="#1B490A"/>
</svg>
