<svg width="29" height="29" viewBox="0 0 29 29" fill="none" xmlns="http://www.w3.org/2000/svg">
<path fill-rule="evenodd" clip-rule="evenodd" d="M12.9487 12.9492L11.5527 17.4119L16.014 16.0145L17.4114 11.5519L12.9487 12.9492ZM10.0273 19.9359C9.76602 19.9359 9.51002 19.8332 9.31935 19.6439C9.05668 19.3799 8.96068 18.9919 9.07268 18.6385L11.1967 11.8532C11.294 11.5385 11.5394 11.2945 11.8514 11.1972L18.6367 9.0732C18.9927 8.95987 19.3794 9.0572 19.6434 9.31987C19.906 9.58387 20.002 9.97187 19.89 10.3252L17.7674 17.1105C17.67 17.4239 17.4234 17.6692 17.1114 17.7665L10.326 19.8905C10.2273 19.9212 10.126 19.9359 10.0273 19.9359Z" fill="black"/>
<mask id="mask0" mask-type="alpha" maskUnits="userSpaceOnUse" x="0" y="0" width="29" height="29">
<path fill-rule="evenodd" clip-rule="evenodd" d="M0.666748 0.666687H28.2958V28.2956H0.666748V0.666687Z" fill="white"/>
</mask>
<g mask="url(#mask0)">
<path fill-rule="evenodd" clip-rule="evenodd" d="M14.4812 2.66669C7.9665 2.66669 2.6665 7.96802 2.6665 14.4814C2.6665 20.996 7.9665 26.296 14.4812 26.296C20.9958 26.296 26.2958 20.996 26.2958 14.4814C26.2958 7.96802 20.9958 2.66669 14.4812 2.66669ZM14.4812 28.296C6.86384 28.296 0.666504 22.0987 0.666504 14.4814C0.666504 6.86402 6.86384 0.666687 14.4812 0.666687C22.0985 0.666687 28.2958 6.86402 28.2958 14.4814C28.2958 22.0987 22.0985 28.296 14.4812 28.296Z" fill="black"/>
</g>
</svg>
