<svg width="32" height="32" viewBox="0 0 32 32" fill="none" xmlns="http://www.w3.org/2000/svg">
<path d="M0 15.9972C0.0018616 23.868 5.72524 30.5696 13.4987 31.8031V20.6211H9.43967V15.9972H13.5035V12.4774C13.3219 10.8095 13.8916 9.14723 15.0581 7.94142C16.2246 6.7356 17.8671 6.11121 19.5401 6.23759C20.7409 6.25698 21.9387 6.36393 23.124 6.55758V10.4918H21.1017C20.4054 10.4006 19.7055 10.6306 19.199 11.1169C18.6924 11.6032 18.4342 12.2932 18.497 12.9926V15.9972H22.9304L22.2216 20.6227H18.497V31.8031C26.9038 30.4745 32.799 22.7967 31.9117 14.3318C31.0244 5.86699 23.6652 -0.421497 15.1656 0.0220869C6.66595 0.46567 0.00135112 7.48603 0 15.9972Z" fill="#2E3A59"/>
</svg>
