<svg width="24" height="22" viewBox="0 0 24 22" fill="none" xmlns="http://www.w3.org/2000/svg">
<path d="M12 21.6013C11.226 20.9149 10.3512 20.2009 9.42601 19.4413H9.41401C6.15601 16.7773 2.46362 13.7629 0.832826 10.1509C0.297048 9.001 0.0131121 7.74988 1.36871e-05 6.48133C-0.00356446 4.74072 0.694551 3.07212 1.93659 1.85267C3.17863 0.633206 4.85976 -0.0341774 6.60001 0.00134913C8.01676 0.00358689 9.40301 0.413046 10.5936 1.18095C11.1168 1.52051 11.5901 1.93125 12 2.40134C12.4122 1.9331 12.8857 1.5226 13.4076 1.18095C14.5977 0.412894 15.9836 0.00341139 17.4 0.00134913C19.1402 -0.0341774 20.8214 0.633206 22.0634 1.85267C23.3055 3.07212 24.0036 4.74072 24 6.48133C23.9877 7.75191 23.7038 9.00516 23.1672 10.1569C21.5364 13.7689 17.8452 16.7821 14.5872 19.4413L14.5752 19.4509C13.6488 20.2057 12.7752 20.9197 12.0012 21.6109L12 21.6013ZM6.60001 2.40134C5.48223 2.38736 4.4041 2.81516 3.60002 3.59174C2.82528 4.35274 2.39229 5.39539 2.39992 6.48133C2.41361 7.40593 2.62301 8.31715 3.01442 9.15493C3.78423 10.7134 4.82295 12.1238 6.08281 13.3213C7.27201 14.5213 8.64001 15.6829 9.8232 16.6597C10.1508 16.9297 10.4844 17.2021 10.818 17.4745L11.028 17.6461C11.3484 17.9077 11.6796 18.1789 12 18.4453L12.0156 18.4309L12.0228 18.4249H12.03L12.0408 18.4165H12.0468H12.0528L12.0744 18.3985L12.1236 18.3589L12.132 18.3517L12.1452 18.3421H12.1524L12.1632 18.3325L12.96 17.6785L13.1688 17.5069C13.506 17.2321 13.8396 16.9597 14.1672 16.6897C15.3504 15.7129 16.7196 14.5525 17.9088 13.3465C19.1688 12.1496 20.2076 10.7395 20.9772 9.18133C21.3757 8.33629 21.5881 7.41554 21.6 6.48133C21.605 5.39874 21.1722 4.36009 20.4 3.60134C19.5974 2.82125 18.5191 2.38992 17.4 2.40134C16.0343 2.38974 14.7287 2.96218 13.812 3.97454L12 6.06254L10.188 3.97454C9.27128 2.96218 7.9657 2.38974 6.60001 2.40134Z" fill="#1B490A"/>
</svg>
