<svg width="35" height="35" viewBox="0 0 35 35" fill="none" xmlns="http://www.w3.org/2000/svg">
<g id="Iconly/Light-Outline/Filter">
<g id="Group 10">
<path id="Fill 1" fill-rule="evenodd" clip-rule="evenodd" d="M14.7002 27.1145H5.51123C4.90748 27.1145 4.41748 26.6245 4.41748 26.0208C4.41748 25.417 4.90748 24.927 5.51123 24.927H14.7002C15.3039 24.927 15.7939 25.417 15.7939 26.0208C15.7939 26.6245 15.3039 27.1145 14.7002 27.1145Z" fill="black"/>
<path id="Fill 3" fill-rule="evenodd" clip-rule="evenodd" d="M27.9868 12.9797H18.7993C18.1956 12.9797 17.7056 12.4897 17.7056 11.886C17.7056 11.2822 18.1956 10.7922 18.7993 10.7922H27.9868C28.5906 10.7922 29.0806 11.2822 29.0806 11.886C29.0806 12.4897 28.5906 12.9797 27.9868 12.9797Z" fill="black"/>
<g id="Group 7">
<mask id="mask0" mask-type="alpha" maskUnits="userSpaceOnUse" x="4" y="7" width="10" height="10">
<path id="Clip 6" fill-rule="evenodd" clip-rule="evenodd" d="M4.375 7.29224H13.4543V16.3217H4.375V7.29224Z" fill="white"/>
</mask>
<g mask="url(#mask0)">
<path id="Fill 5" fill-rule="evenodd" clip-rule="evenodd" d="M8.91455 9.47913C7.61809 9.47913 6.56226 10.5233 6.56226 11.8081C6.56226 13.0914 7.61809 14.1341 8.91455 14.1341C10.2125 14.1341 11.2668 13.0914 11.2668 11.8081C11.2668 10.5233 10.2125 9.47913 8.91455 9.47913ZM8.91455 16.3216C6.41205 16.3216 4.37476 14.2975 4.37476 11.8081C4.37476 9.31871 6.41205 7.29163 8.91455 7.29163C11.4185 7.29163 13.4543 9.31871 13.4543 11.8081C13.4543 14.2975 11.4185 16.3216 8.91455 16.3216Z" fill="black"/>
</g>
</g>
<path id="Fill 8" fill-rule="evenodd" clip-rule="evenodd" d="M25.3572 23.6367C24.0593 23.6367 23.0034 24.6809 23.0034 25.9642C23.0034 27.249 24.0593 28.2917 25.3572 28.2917C26.6536 28.2917 27.708 27.249 27.708 25.9642C27.708 24.6809 26.6536 23.6367 25.3572 23.6367ZM25.3572 30.4792C22.8532 30.4792 20.8159 28.4536 20.8159 25.9642C20.8159 23.4748 22.8532 21.4492 25.3572 21.4492C27.8597 21.4492 29.8955 23.4748 29.8955 25.9642C29.8955 28.4536 27.8597 30.4792 25.3572 30.4792Z" fill="black"/>
</g>
</g>
</svg>
