<svg width="28" height="30" viewBox="0 0 28 30" fill="none" xmlns="http://www.w3.org/2000/svg">
<mask id="mask0" mask-type="alpha" maskUnits="userSpaceOnUse" x="0" y="0" width="28" height="30">
<path fill-rule="evenodd" clip-rule="evenodd" d="M0.666748 0.333618H27.9998V29.007H0.666748V0.333618Z" fill="white"/>
</mask>
<g mask="url(#mask0)">
<path fill-rule="evenodd" clip-rule="evenodd" d="M16.2892 19.3884C17.8945 19.3884 19.2012 20.6858 19.2012 22.2804V26.3818C19.2012 26.7244 19.4758 26.9991 19.8278 27.0071H22.3692C24.3718 27.0071 25.9998 25.3991 25.9998 23.4231V11.7911C25.9905 11.1111 25.6665 10.4711 25.1105 10.0458L16.3198 3.03511C15.1398 2.10044 13.4892 2.10044 12.3052 3.03777L3.5745 10.0431C2.99717 10.4818 2.67317 11.1218 2.6665 11.8138V23.4231C2.6665 25.3991 4.2945 27.0071 6.29717 27.0071H8.8625C9.22384 27.0071 9.51717 26.7204 9.51717 26.3684C9.51717 26.2911 9.5265 26.2138 9.5425 26.1404V22.2804C9.5425 20.6951 10.8412 19.3991 12.4345 19.3884H16.2892ZM22.3692 29.0071H19.8038C18.3345 28.9724 17.2012 27.8191 17.2012 26.3818V22.2804C17.2012 21.7884 16.7918 21.3884 16.2892 21.3884H12.4412C11.9492 21.3911 11.5425 21.7924 11.5425 22.2804V26.3684C11.5425 26.4684 11.5292 26.5644 11.5012 26.6551C11.3572 27.9751 10.2292 29.0071 8.8625 29.0071H6.29717C3.19184 29.0071 0.666504 26.5018 0.666504 23.4231V11.8044C0.679837 10.4791 1.2905 9.26577 2.34517 8.4671L11.0585 1.47377C12.9772 -0.0462314 15.6505 -0.0462315 17.5652 1.4711L26.3412 8.4711C27.3718 9.25644 27.9825 10.4671 27.9998 11.7764V23.4231C27.9998 26.5018 25.4745 29.0071 22.3692 29.0071Z" fill="black"/>
</g>
</svg>
