<svg width="25" height="29" viewBox="0 0 25 29" fill="none" xmlns="http://www.w3.org/2000/svg">
<mask id="mask0" mask-type="alpha" maskUnits="userSpaceOnUse" x="0" y="0" width="25" height="24">
<path fill-rule="evenodd" clip-rule="evenodd" d="M0 0.333313H24.6626V23.464H0V0.333313Z" fill="white"/>
</mask>
<g mask="url(#mask0)">
<path fill-rule="evenodd" clip-rule="evenodd" d="M12.3293 2.33331C7.66935 2.33331 4.42135 5.98398 4.42135 9.25998C4.42135 12.032 3.65202 13.3133 2.97202 14.444C2.42668 15.352 1.99602 16.0693 1.99602 17.628C2.21868 20.1426 3.87868 21.464 12.3293 21.464C20.7333 21.464 22.4453 20.084 22.6667 17.5413C22.6627 16.0693 22.232 15.352 21.6867 14.444C21.0067 13.3133 20.2373 12.032 20.2373 9.25998C20.2373 5.98398 16.9893 2.33331 12.3293 2.33331ZM12.3294 23.464C6.09468 23.464 0.460018 23.024 1.78062e-05 17.7133C-0.00398219 15.516 0.666684 14.3986 1.25868 13.4146C1.85735 12.4173 2.42135 11.4773 2.42135 9.25998C2.42135 4.94931 6.40268 0.333313 12.3294 0.333313C18.256 0.333313 22.2373 4.94931 22.2373 9.25998C22.2373 11.4773 22.8013 12.4173 23.4 13.4146C23.992 14.3986 24.6627 15.516 24.6627 17.628C24.1973 23.024 18.564 23.464 12.3294 23.464Z" fill="black"/>
</g>
<path fill-rule="evenodd" clip-rule="evenodd" d="M12.2644 29H12.2617C10.767 28.9987 9.35236 28.34 8.27903 27.144C7.9097 26.7347 7.94303 26.1013 8.3537 25.7333C8.76436 25.3627 9.39636 25.396 9.7657 25.808C10.4564 26.5773 11.343 27 12.263 27H12.2644C13.1884 27 14.079 26.5773 14.771 25.8067C15.1417 25.3973 15.7737 25.364 16.183 25.7333C16.5937 26.1027 16.627 26.736 16.2577 27.1453C15.1804 28.3413 13.763 29 12.2644 29Z" fill="black"/>
</svg>
