<svg width="32" height="32" viewBox="0 0 32 32" fill="none" xmlns="http://www.w3.org/2000/svg">
<g id="Iconly/Light-Outline/Search">
<g id="Search">
<g id="Group 3">
<mask id="mask0" mask-type="alpha" maskUnits="userSpaceOnUse" x="2" y="2" width="27" height="27">
<path id="Clip 2" fill-rule="evenodd" clip-rule="evenodd" d="M2.66669 2.66675H28.6358V28.6361H2.66669V2.66675Z" fill="white"/>
</mask>
<g mask="url(#mask0)">
<path id="Fill 1" fill-rule="evenodd" clip-rule="evenodd" d="M15.6518 4.66675C9.59444 4.66675 4.66644 9.59341 4.66644 15.6507C4.66644 21.7081 9.59444 26.6361 15.6518 26.6361C21.7078 26.6361 26.6358 21.7081 26.6358 15.6507C26.6358 9.59341 21.7078 4.66675 15.6518 4.66675ZM15.6518 28.6361C8.49178 28.6361 2.66644 22.8107 2.66644 15.6507C2.66644 8.49075 8.49178 2.66675 15.6518 2.66675C22.8118 2.66675 28.6358 8.49075 28.6358 15.6507C28.6358 22.8107 22.8118 28.6361 15.6518 28.6361Z" fill="black"/>
</g>
</g>
<g id="Group 6">
<mask id="mask1" mask-type="alpha" maskUnits="userSpaceOnUse" x="22" y="23" width="8" height="8">
<path id="Clip 5" fill-rule="evenodd" clip-rule="evenodd" d="M22.9866 23.6094H29.6853V30.2957H22.9866V23.6094Z" fill="white"/>
</mask>
<g mask="url(#mask1)">
<path id="Fill 4" fill-rule="evenodd" clip-rule="evenodd" d="M28.6856 30.2957C28.4309 30.2957 28.1749 30.1984 27.9789 30.0037L23.2802 25.3184C22.8896 24.9277 22.8882 24.2944 23.2789 23.9037C23.6682 23.5104 24.3016 23.513 24.6936 23.901L29.3922 28.5877C29.7829 28.9784 29.7842 29.6104 29.3936 30.001C29.1989 30.1984 28.9416 30.2957 28.6856 30.2957Z" fill="black"/>
</g>
</g>
</g>
</g>
</svg>
