<svg width="26" height="18" viewBox="0 0 26 18" fill="none" xmlns="http://www.w3.org/2000/svg">
<path fill-rule="evenodd" clip-rule="evenodd" d="M23.5 18H2.5C1.12 18 0 17.552 0 17C0 16.448 1.12 16 2.5 16H23.5C24.88 16 26 16.448 26 17C26 17.552 24.88 18 23.5 18Z" fill="black"/>
<path fill-rule="evenodd" clip-rule="evenodd" d="M23.5 10H2.5C1.12 10 0 9.552 0 9C0 8.448 1.12 8 2.5 8H23.5C24.88 8 26 8.448 26 9C26 9.552 24.88 10 23.5 10Z" fill="black"/>
<path fill-rule="evenodd" clip-rule="evenodd" d="M23.5 2H2.5C1.12 2 0 1.552 0 1C0 0.448 1.12 0 2.5 0H23.5C24.88 0 26 0.448 26 1C26 1.552 24.88 2 23.5 2Z" fill="black"/>
</svg>
