<svg width="26" height="30" viewBox="0 0 26 30" fill="none" xmlns="http://www.w3.org/2000/svg">
<path d="M4.73684 7.89474C4.73684 3.53459 8.27144 0 12.6316 0C16.9917 0 20.5263 3.53459 20.5263 7.89474C20.5263 12.2549 16.9917 15.7895 12.6316 15.7895C8.27144 15.7895 4.73684 12.2549 4.73684 7.89474ZM12.6316 12.6316C15.2477 12.6316 17.3684 10.5108 17.3684 7.89474C17.3684 5.27865 15.2477 3.15789 12.6316 3.15789C10.0155 3.15789 7.89474 5.27865 7.89474 7.89474C7.89474 10.5108 10.0155 12.6316 12.6316 12.6316Z" fill="#2E3A59"/>
<path d="M3.6997 21.0681C1.33082 23.437 0 26.6499 0 30H3.15789C3.15789 27.4874 4.15601 25.0778 5.93267 23.3011C7.70933 21.5244 10.119 20.5263 12.6316 20.5263C15.1442 20.5263 17.5538 21.5244 19.3305 23.3011C21.1071 25.0778 22.1053 27.4874 22.1053 30H25.2632C25.2632 26.6499 23.9323 23.437 21.5635 21.0681C19.1946 18.6992 15.9817 17.3684 12.6316 17.3684C9.28148 17.3684 6.06858 18.6992 3.6997 21.0681Z" fill="#2E3A59"/>
</svg>
